<?xml version="1.0" encoding="utf-8"?>
<!-- Generator: Adobe Illustrator 18.1.1, SVG Export Plug-In . SVG Version: 6.00 Build 0)  -->
<svg version="1.1" xmlns="http://www.w3.org/2000/svg" xmlns:xlink="http://www.w3.org/1999/xlink" x="0px" y="0px"
	 viewBox="0 0 62.6 61" enable-background="new 0 0 62.6 61" xml:space="preserve">
<g id="Layer_1">
</g>
<g id="_x3C_Layer_x3E_">
	<g>
		<g>
			<path fill="#3A3941" d="M38.8,7.2c-3.7,0-7.5,0-11.2,0c-1,0-1.3,0.3-1.2,1.3c0.1,0.9,0.5,2.4-0.2,2.7c-0.9,0.4-1.5-1.1-2.2-1.7
				c-0.9-0.7-1.6-1.5-2.4-2.3c-0.7-0.7-0.7-1.5,0-2.2c1.2-1.2,2.5-2.5,3.7-3.7c0.2-0.2,0.5-0.5,0.8-0.4c0.4,0.1,0.3,0.5,0.3,0.8
				c0.1,1-0.5,2.4,0.3,3.1C27.5,5.4,28.9,5,30,5c6.7,0,13.3,0,20,0c1,0,1.5-0.1,1.4-1.3c-0.1-0.9-0.5-2.4,0.4-2.7
				c1-0.4,1.5,1.1,2.2,1.7c0.8,0.7,1.6,1.5,2.3,2.4c0.6,0.7,0.7,1.4,0,2.1C55,8.4,53.7,9.7,52.4,11c-0.2,0.2-0.4,0.5-0.8,0.3
				c-0.3-0.2-0.3-0.5-0.3-0.7c0-0.1,0-0.3,0-0.4c0-3,0-3-2.9-3C45.2,7.2,42,7.2,38.8,7.2z"/>
			<path fill="#3A3941" d="M4.2,37.4c0-3.7,0-7.5,0-11.2c0-1-0.3-1.3-1.2-1.2c-0.6,0.1-1.3,0-1.9,0c-0.4,0-0.8,0.1-1-0.3
				c-0.1-0.4,0.2-0.7,0.5-0.9C1.7,22.5,3,21.3,4.2,20c0.7-0.7,1.4-0.8,2.1-0.1c1.3,1.3,2.5,2.6,3.8,3.8c0.2,0.2,0.5,0.5,0.4,0.8
				c-0.2,0.5-0.6,0.3-1,0.3c-1,0.1-2.3-0.5-2.9,0.2c-0.7,0.7-0.2,2-0.2,3.1c0,6.7,0,13.4,0,20.1c0,1.2,0.2,1.7,1.5,1.5
				c0.6-0.1,1.2,0,1.8,0c0.3,0,0.7-0.1,0.8,0.3c0.1,0.4-0.2,0.6-0.4,0.8c-1.3,1.3-2.5,2.6-3.8,3.8c-0.7,0.7-1.4,0.6-2.1,0
				c-1.3-1.3-2.6-2.5-3.8-3.8c-0.2-0.2-0.5-0.5-0.3-0.8c0.2-0.3,0.5-0.2,0.7-0.2c0.2,0,0.4,0,0.6,0c2.8-0.1,2.8-0.1,2.8-3
				C4.2,43.8,4.2,40.6,4.2,37.4z"/>
		</g>
		<g>
			<path fill="#BDCCD4" d="M20.3,59c-1.7,0-3-1.3-3-3V18.8c0-1.7,1.3-3,3-3h37.2c1.7,0,3,1.3,3,3V56c0,1.7-1.3,3-3,3H20.3z"/>
			<path fill="#3A3941" d="M57.5,17.8c0.5,0,1,0.5,1,1V56c0,0.5-0.5,1-1,1H20.3c-0.5,0-1-0.5-1-1V18.8c0-0.5,0.5-1,1-1H57.5
				 M57.5,13.8H20.3c-2.8,0-5,2.2-5,5V56c0,2.8,2.3,5,5,5h37.2c2.8,0,5-2.3,5-5V18.8C62.5,16.1,60.3,13.8,57.5,13.8L57.5,13.8z"/>
		</g>
	</g>
</g>
</svg>
