<?xml version="1.0" encoding="utf-8"?>
<!-- Generator: Adobe Illustrator 18.1.1, SVG Export Plug-In . SVG Version: 6.00 Build 0)  -->
<svg version="1.1" xmlns="http://www.w3.org/2000/svg" xmlns:xlink="http://www.w3.org/1999/xlink" x="0px" y="0px"
	 viewBox="0 0 47.2 47.2" enable-background="new 0 0 47.2 47.2" xml:space="preserve">
<g id="Layer_1">
</g>
<g id="_x3C_Layer_x3E_">
	<g>
		<g>
			<path fill="#BDCCD4" d="M5,45.2c-1.7,0-3-1.3-3-3V5c0-1.7,1.3-3,3-3h37.2c1.7,0,3,1.3,3,3v37.2c0,1.7-1.3,3-3,3H5z"/>
			<path fill="#3A3941" d="M42.2,4c0.5,0,1,0.5,1,1v37.2c0,0.5-0.5,1-1,1H5c-0.5,0-1-0.5-1-1V5c0-0.5,0.5-1,1-1H42.2 M42.2,0H5
				C2.2,0,0,2.3,0,5v37.2c0,2.8,2.3,5,5,5h37.2c2.8,0,5-2.3,5-5V5C47.2,2.3,45,0,42.2,0L42.2,0z"/>
		</g>
		<g>
			<path fill="#3A3941" d="M9.3,26.6c0.5-0.7,0.9-1.4,1.2-2c0.1-0.2,0.3-0.1,0.5-0.1c0.6,0,1.2,0,1.9,0c0.3,0,0.4-0.1,0.4-0.4
				c0.1-1.6,0.1-1.6-1.5-1.6c-0.8,0-1.6,0-2.4,0c0.5-0.7,0.9-1.4,1.3-2c0.1-0.2,0.3-0.1,0.4-0.1c0.5,0,1.1-0.1,1.6,0
				c0.6,0.1,0.9-0.2,1.1-0.8c0.6-1.9,1.6-3.6,3-5c4.1-4.2,10.4-5.1,15.7-2.3c1,0.5,1.9,1.2,2.7,2c0.2,0.2,0.3,0.3,0.1,0.5
				c-0.8,1.2-1.5,2.5-2.3,3.7c-1.3-1.1-2.6-2.1-4.2-2.7c-4.1-1.4-8.1,0.3-10.2,4.1c-0.2,0.4,0,0.4,0.3,0.4c1.1,0,2.3,0,3.4,0
				c3.3,0,6.6,0,10,0c0.2,0,0.4,0,0.7,0c-0.4,0.7-0.8,1.3-1.2,2c-0.2,0.3-0.4,0.2-0.6,0.2c-4.2,0-8.4,0-12.5,0
				c-0.6,0-0.7,0.1-0.7,0.7c0,1.2,0,1.2,1.2,1.2c3.8,0,7.5,0,11.3,0c0.7,0,0.6,0,0.4,0.6c-0.5,1.2-1.3,1.5-2.6,1.5
				c-3.1-0.1-6.2,0-9.3,0c-0.5,0-0.5,0.1-0.3,0.5c2.1,4.8,7.5,5.8,11.6,4c1.7-0.7,3.2-1.8,4.6-3.2c0,0.6,0,1,0,1.4
				c0,1.2,0,2.4,0,3.7c0,0.2,0,0.4-0.2,0.6c-1.7,1.3-3.6,2.5-5.8,2.8c-4.1,0.5-8,0-11.2-2.9c-1.9-1.7-3-3.9-3.7-6.3
				c-0.1-0.5-0.3-0.7-0.8-0.6C11.7,26.6,10.6,26.6,9.3,26.6z"/>
		</g>
	</g>
</g>
</svg>
