<?xml version="1.0" encoding="utf-8"?>
<!-- Generator: Adobe Illustrator 18.1.1, SVG Export Plug-In . SVG Version: 6.00 Build 0)  -->
<svg version="1.1" xmlns="http://www.w3.org/2000/svg" xmlns:xlink="http://www.w3.org/1999/xlink" x="0px" y="0px"
	 viewBox="0 0 47.2 52.3" enable-background="new 0 0 47.2 52.3" xml:space="preserve">
<g id="Layer_1">
</g>
<g id="_x3C_Layer_x3E_">
	<g>
		<g>
			<path fill="#BDCCD4" d="M5,50.3c-1.7,0-3-1.3-3-3V10.1c0-1.7,1.3-3,3-3h37.2c1.7,0,3,1.3,3,3v37.2c0,1.7-1.3,3-3,3H5z"/>
			<path fill="#3A3941" d="M42.2,9.1c0.5,0,1,0.5,1,1v37.2c0,0.5-0.5,1-1,1H5c-0.5,0-1-0.5-1-1V10.1c0-0.5,0.5-1,1-1H42.2 M42.2,5.1
				H5c-2.7,0-5,2.3-5,5v37.2c0,2.8,2.3,5,5,5h37.2c2.8,0,5-2.3,5-5V10.1C47.2,7.4,45,5.1,42.2,5.1L42.2,5.1z"/>
		</g>
		<rect x="3.9" y="6.8" fill="#3A3941" width="39.3" height="9.4"/>
		<path fill="#AFBDC4" d="M13.7,4.3c0,0.9,0,1.7,0,2.6c0.2,0.3,0.3,0.6,0.3,1c0,0.9,0.1,1.8-0.1,2.7c-0.4,1.7-1.8,2.7-3.5,2.5
			c-1.5-0.2-2.6-1.5-2.6-3.1c0-0.7,0-1.4,0-2.1c0-0.3,0.1-0.7,0.2-1c0-0.8,0-1.7,0-2.5c0-0.5,0-1,0-1.5C8,1.3,9.1,0.1,10.5,0
			c1.5-0.1,2.8,0.9,3,2.4C13.6,3,13.6,3.7,13.7,4.3z"/>
		<path fill="#AFBDC4" d="M39.3,4.3c0,0.8,0,1.7,0,2.5c0.2,0.4,0.2,0.7,0.2,1.1c0,0.7,0,1.5,0,2.2c-0.1,1.3-1,2.5-2.2,2.8
			c-1.4,0.4-2.8-0.2-3.5-1.4c-0.2-0.4-0.5-0.8-0.2-1.2c0-2,0-4-0.1-6.1c0-0.5,0-1,0-1.4C33.7,1.2,34.9,0,36.5,0
			c1.6,0,2.8,1.3,2.8,2.9C39.3,3.4,39.3,3.8,39.3,4.3z"/>
		<path fill="#AFBDC4" d="M23.6,33.6c-1.2,0-2.4,0-3.6,0c-0.5,0-0.7-0.1-0.7-0.6c0-2.4,0-4.9,0-7.3c0-0.5,0.2-0.6,0.6-0.6
			c2.5,0,4.9,0,7.4,0c0.4,0,0.6,0.1,0.6,0.6c0,2.5,0,4.9,0,7.4c0,0.4-0.2,0.5-0.6,0.5C26.1,33.6,24.8,33.6,23.6,33.6z"/>
		<path fill="#AFBDC4" d="M23.6,36.4c1.3,0,2.5,0,3.8,0c0.4,0,0.6,0.1,0.6,0.6c0,2.5,0,4.9,0,7.4c0,0.4-0.1,0.6-0.5,0.6
			c-2.5,0-5,0-7.5,0c-0.4,0-0.6-0.1-0.6-0.6c0-2.5,0-4.9,0-7.4c0-0.4,0.1-0.6,0.5-0.6C21.1,36.5,22.3,36.4,23.6,36.4z"/>
		<path fill="#AFBDC4" d="M12.2,25.1c1.2,0,2.4,0,3.6,0c0.4,0,0.6,0.1,0.6,0.5c0,2.5,0,4.9,0,7.4c0,0.4-0.1,0.6-0.5,0.6
			c-2.5,0-4.9,0-7.4,0c-0.4,0-0.6-0.1-0.6-0.5c0-2.5,0-4.9,0-7.4c0-0.5,0.2-0.6,0.6-0.6C9.7,25.1,11,25.1,12.2,25.1z"/>
		<path fill="#AFBDC4" d="M35,33.6c-1.2,0-2.5,0-3.7,0c-0.4,0-0.6-0.1-0.6-0.5c0-2.5,0-4.9,0-7.4c0-0.4,0.1-0.6,0.5-0.6
			c2.5,0,4.9,0,7.4,0c0.4,0,0.6,0.1,0.6,0.6c0,2.5,0,4.9,0,7.4c0,0.4-0.1,0.6-0.5,0.6C37.5,33.6,36.3,33.6,35,33.6z"/>
		<path fill="#AFBDC4" d="M16.4,40.7c0,1.2,0,2.5,0,3.7c0,0.4-0.1,0.6-0.6,0.6c-2.5,0-4.9,0-7.4,0c-0.4,0-0.6-0.1-0.6-0.6
			c0-2.5,0-4.9,0-7.4c0-0.4,0.1-0.6,0.5-0.6c2.5,0,4.9,0,7.4,0c0.4,0,0.6,0.1,0.6,0.5C16.4,38.2,16.4,39.5,16.4,40.7z"/>
		<path fill="#F1F0D4" d="M30.8,40.7c0-1.2,0-2.5,0-3.7c0-0.5,0.1-0.6,0.6-0.6c2.5,0,5,0,7.5,0c0.4,0,0.5,0.1,0.5,0.5
			c0,2.5,0,5.1,0,7.6c0,0.4-0.1,0.5-0.5,0.5c-2.5,0-5.1,0-7.6,0c-0.4,0-0.5-0.2-0.5-0.5C30.8,43.2,30.8,42,30.8,40.7z"/>
		<path fill="#FFFFFF" d="M7.9,6.8c0,1,0,2,0,3c0,1.7,1.2,3,2.8,3c1.6,0,2.8-1.2,2.9-2.9c0-1,0-2,0-3c1.6,1.4,1.8,4.2,0.4,5.8
			c-1.1,1.3-2.6,1.8-4.2,1.4c-1.8-0.4-2.9-1.6-3.3-3.4C6.3,9.2,6.7,7.9,7.9,6.8z"/>
		<path fill="#FFFFFF" d="M33.6,10.4c0.3,1.5,1.4,2.4,2.8,2.5c1.4,0,2.5-0.9,2.8-2.2c0.1-0.5,0.1-1.1,0.1-1.7c0-0.7,0-1.4,0-2.1
			c1.4,1.2,1.8,3.2,1,4.9c-0.8,1.8-2.5,2.7-4.5,2.5c-1.6-0.2-3.2-1.6-3.6-3.3c-0.3-1.4,0.2-3.2,1.2-3.9C33.6,8.2,33.4,9.3,33.6,10.4
			z"/>
	</g>
</g>
</svg>
