<?xml version="1.0" encoding="utf-8"?>
<!-- Generator: Adobe Illustrator 18.1.1, SVG Export Plug-In . SVG Version: 6.00 Build 0)  -->
<svg version="1.1" xmlns="http://www.w3.org/2000/svg" xmlns:xlink="http://www.w3.org/1999/xlink" x="0px" y="0px"
	 viewBox="0 0 920 162" enable-background="new 0 0 920 162" xml:space="preserve">
<g id="Layer_1">
</g>
<g id="_x3C_Layer_x3E_">
</g>
<g id="Layer_3">
	<g>
		<rect x="11" y="38.8" fill="#FF1D25" width="36.7" height="35.8"/>
		<rect x="11" y="86.3" fill="#CCCCCC" width="36.7" height="35.8"/>
		<g>
			<path d="M80.7,111c-8.2-9.1-12.3-21.5-12.3-37.4c0-10.7,2.2-20,6.5-27.9c4.3-7.9,10.3-14,17.9-18.2c7.6-4.2,16.2-6.3,25.8-6.3
				c3.8,0,7.5,0.2,11,0.6c3.5,0.4,7.8,1,12.7,1.7c3.6,0.6,6.2,1,7.7,1.1l-1.6,29.7h-13.8L130.1,34c-1-0.9-2.6-1.7-4.7-2.3
				c-2.2-0.6-5-0.9-8.4-0.9c-7.1,0-12.7,3.5-16.9,10.5c-4.3,7-6.4,17.2-6.4,30.6c0,13,2.1,23.5,6.2,31.5c4.1,8,10.1,11.9,17.8,11.9
				c3.7,0,6.6-0.4,8.5-1.1c2-0.7,3.7-1.8,5.2-3.1l6.1-14.5l12.9,1.2l-2.6,21.8c-2.5,0.2-5.8,0.9-9.8,2c-3.4,1-6.8,1.8-10,2.3
				c-3.2,0.5-7.1,0.8-11.7,0.8C100.7,124.7,88.9,120.1,80.7,111z"/>
			<path d="M164,63.8c3.4-6,8-10.5,13.8-13.5c5.8-3,12.1-4.5,19-4.5c11.4,0,20.3,3.4,26.7,10.3c6.4,6.9,9.6,16.4,9.6,28.6
				c0,8.8-1.7,16.2-5.2,22.2c-3.4,6-8,10.5-13.8,13.4c-5.8,2.9-12.2,4.3-19.1,4.3c-11.3,0-20.2-3.4-26.6-10.3
				c-6.4-6.9-9.6-16.4-9.6-28.6C158.9,77.2,160.6,69.9,164,63.8z M206.5,108.3c2.3-4.7,3.4-12.1,3.4-22c0-10.5-1.1-18.3-3.2-23.5
				c-2.1-5.2-5.7-7.7-10.6-7.7c-4.6,0-8.1,2.4-10.4,7.1c-2.4,4.7-3.5,12.1-3.5,22c0,10.4,1.1,18.2,3.4,23.4
				c2.3,5.2,5.9,7.8,10.8,7.8C200.8,115.4,204.2,113.1,206.5,108.3z"/>
			<path d="M250.9,61.7l-8.1-2.6V48.9l24-2.8h0.4l3.5,2.8v5l-0.1,3.3c3.2-3,7.2-5.5,12.1-7.7c4.9-2.1,10-3.2,15.3-3.2
				c5.4,0,9.7,1,12.9,2.9c3.2,1.9,5.4,5.1,6.8,9.4c1.4,4.3,2.1,10.2,2.1,17.5v37.2l7.7,1.1v8.8h-36.5v-8.7l6.9-1.2V76.1
				c0-6.5-0.7-11-2.2-13.6c-1.4-2.5-4.2-3.8-8.4-3.8c-4.7,0-9.6,2-14.6,6v48.4l7.6,1.4v8.7h-37v-8.7l7.6-1.4V61.7z"/>
			<path d="M346.6,120.3c-2.8-2.7-4.3-7-4.3-12.7V58.9h-8.4v-7.6l2.7-1.1c2.2-0.7,4.1-1.5,5.7-2.3c1.6-1.4,3-3.5,4.2-6.5
				c1-2.3,2.5-7,4.5-13.8h12.2l0.7,20.2h19.8v11.1h-19.5v36.5c0,5.1,0.1,8.6,0.4,10.6c0.3,2,0.8,3.3,1.6,3.9
				c0.8,0.6,2.3,0.9,4.3,0.9c3.9,0,8-0.7,12.3-2.2l2.8,8.1c-2.5,2.1-6.3,3.9-11.2,5.4c-4.9,1.5-9.9,2.3-14.8,2.3
				C353.8,124.4,349.4,123,346.6,120.3z"/>
			<path d="M392.2,114.5l8.4-1.2V61.7l-8.3-2.6V48.9l22.1-2.8h0.4l3.8,2.8V52l-0.4,11.3h0.4c0.6-2.1,2.1-4.5,4.3-7.2
				c2.3-2.7,5.2-5.1,8.7-7.1c3.5-2,7.3-3,11.4-3c2.3,0,4.2,0.3,5.4,0.9v22.6c-3-2.2-6.6-3.3-10.8-3.3c-6.1,0-11.3,1.4-15.7,4.3v42.7
				l15.2,1.2v8.7h-44.9V114.5z"/>
			<path d="M512.6,112.6c0,1.3,0.3,2.2,0.8,2.8c0.5,0.6,1.2,0.9,1.9,0.9c0.8,0,1.7-0.3,2.6-0.8c0.9-0.5,2-1.4,3.4-2.7l1.9,3.4
				c-1,1.6-2.8,3.4-5.5,5.4c-2.7,2-5.7,3-9,3c-2.8,0-5-0.7-6.5-2.2c-1.5-1.4-2.3-3.7-2.2-6.6l0.7-4.3c-2.9,3.6-6.3,6.7-10.2,9.3
				c-3.9,2.6-8.1,3.9-12.5,3.9c-7.3,0-12.8-2.6-16.3-7.8c-3.6-5.2-5.4-12.1-5.4-20.7c0-7.6,1.7-15.3,5.2-23
				c3.4-7.7,8.4-14.1,15-19.3c6.6-5.1,14.2-7.7,23-7.7c2.1,0,4.4,0.3,7,0.7c2.6,0.5,4.9,1.1,7,1.7l8.1-2.3l-8.7,64.5
				C512.6,111.3,512.6,111.9,512.6,112.6z M497.8,53.3c-5.9,0-10.9,2.1-15.1,6.4c-4.2,4.3-7.4,9.6-9.5,16.1
				c-2.1,6.5-3.2,12.9-3.2,19.2c0,6.6,1,11.7,2.9,15.4c1.9,3.7,4.9,5.5,8.7,5.5c3.4,0,6.9-1.3,10.4-3.9c3.5-2.6,6.4-5.6,8.7-8.9
				l6.2-47.2C504.4,54.2,501.3,53.3,497.8,53.3z"/>
			<path d="M571.4,51.1c5-3.3,10.1-4.9,15.3-4.9c5.1,0,8.9,1.5,11.7,4.6c2.7,3.1,4.1,8.1,4.1,15c0,3.7-1,10.6-3,20.7l-0.5,3.1
				l-1.1,6.5c-1.4,7.6-2.2,13.1-2.2,16.4c0,2.4,0.6,3.7,1.8,3.7c1.7,0,3.8-1.1,6.4-3.4l1.6,3.5c-0.5,0.8-1.4,1.9-2.8,3.1
				c-1.4,1.3-3.2,2.4-5.4,3.5c-2.1,1-4.5,1.6-7,1.6c-5.7,0-8.5-2.8-8.5-8.3c0-2.7,0.8-8.2,2.4-16.5l1.2-6.5l0.5-3.3
				c0.9-4.9,1.6-9.2,2.2-12.8c0.5-3.7,0.8-7.1,0.8-10.2c0-4.2-0.6-7-1.8-8.6c-1.2-1.6-3.4-2.4-6.4-2.4c-3.6,0-7.7,1.8-12.1,5.4
				c-4.5,3.6-8.3,7.9-11.5,12.9l-6.6,48.9h-12.9l8.7-65.6l-6.6-3.3l1.1-5.2l16.5-3l2.8,1.5l-1.8,16.3
				C561.9,58.7,566.4,54.4,571.4,51.1z"/>
			<path d="M675,112.6c0,1.3,0.3,2.2,0.8,2.8c0.5,0.6,1.2,0.9,1.9,0.9c0.8,0,1.7-0.3,2.6-0.8c0.9-0.5,2-1.4,3.4-2.7l1.9,3.4
				c-1,1.6-2.8,3.4-5.5,5.4c-2.7,2-5.7,3-9,3c-2.8,0-5-0.7-6.5-2.2c-1.5-1.4-2.3-3.7-2.2-6.6l0.7-4.3c-2.9,3.6-6.3,6.7-10.2,9.3
				c-3.9,2.6-8.1,3.9-12.5,3.9c-7.3,0-12.8-2.6-16.3-7.8c-3.6-5.2-5.4-12.1-5.4-20.7c0-7.6,1.7-15.3,5.2-23
				c3.4-7.7,8.4-14.1,15-19.3c6.6-5.1,14.2-7.7,23-7.7c2.1,0,4.4,0.3,7,0.7c2.6,0.5,4.9,1.1,7,1.7l8.1-2.3l-8.7,64.5
				C675.1,111.3,675,111.9,675,112.6z M660.2,53.3c-5.9,0-10.9,2.1-15.1,6.4c-4.2,4.3-7.4,9.6-9.5,16.1c-2.1,6.5-3.2,12.9-3.2,19.2
				c0,6.6,1,11.7,2.9,15.4c1.9,3.7,4.9,5.5,8.7,5.5c3.4,0,6.9-1.3,10.4-3.9c3.5-2.6,6.4-5.6,8.7-8.9l6.2-47.2
				C666.8,54.2,663.8,53.3,660.2,53.3z"/>
			<path d="M713.8,113c0,2.2,0.7,3.3,2,3.3c1,0,2-0.3,3.1-0.9c1-0.6,2.4-1.6,4-3.2l1.8,3.3c-1.1,1.8-3,3.8-5.8,5.9
				c-2.8,2.1-6,3.2-9.5,3.2c-5.9,0-8.8-2.8-8.8-8.4c0-0.9,0.1-1.8,0.2-2.6c0.1-0.9,0.2-1.5,0.3-2l12.2-88.1l-8.1-2.3l1.2-4.7l18-2.4
				l2.8,1.8l-13.3,95.9C713.8,111.9,713.8,112.4,713.8,113z"/>
			<path d="M742.7,56c-0.5-0.6-1.1-0.9-1.9-0.9c-1.4,0-3.1,1-5.2,3l-1.8-3.8c1-1.4,2.8-3.1,5.5-5.1c2.7-1.9,5.5-2.9,8.5-2.9
				c3.1,0,5.3,0.8,6.6,2.3c1.4,1.5,2.2,3.8,2.6,6.8l7.3,51l1.9,17.4l9.4-18.3c0.9-2,1.6-3.4,2.2-4.3c4-8.2,6.9-15,8.9-20.4
				c1.9-5.4,2.9-10.9,2.9-16.5c0-1.6-0.2-3-0.7-4.2c-0.5-1.2-0.7-1.9-0.8-2c-0.1-0.2-0.3-0.8-0.7-1.8c-0.4-1-0.5-2.1-0.5-3.3
				c0-2.1,0.6-3.7,1.8-4.8c1.2-1.1,2.8-1.7,4.7-1.7c2.6,0,4.7,1.1,6.2,3.4c1.5,2.3,2.2,5.2,2.2,8.9c0,6.1-1.2,12.2-3.7,18.3
				c-2.4,6.1-5.9,13.5-10.3,22c-0.7,1.3-1.2,2.2-1.5,2.8c-4.2,8.6-8.4,16.5-12.8,23.9c-4.4,7.3-8.2,13.2-11.3,17.5
				c-2.7,4.1-6.1,7.4-10.3,9.9c-4.2,2.5-8.9,3.8-14.4,3.8c-2,0-4.2-0.3-6.6-0.7c-2.4-0.5-4.2-1-5.5-1.6l3.1-9.8
				c3.3,1.9,7.1,2.8,11.5,2.8c3.9,0,7.9-1.6,12.1-4.7c4.2-3.1,8-8,11.5-14.7h-7.1l-12.7-68.9C743.5,57.7,743.1,56.6,742.7,56z"/>
			<path d="M849.7,55.6c-2.8-1.3-6-1.9-9.6-1.9c-4.2,0-7.5,0.9-10,2.7c-2.5,1.8-3.8,4.4-3.8,7.9c0,3.1,1,5.8,3.1,8.2
				c2,2.4,4.9,5,8.7,7.8c3.3,2.5,5.9,4.7,7.8,6.5c1.9,1.8,3.7,4.1,5.2,6.8c1.5,2.7,2.3,5.8,2.3,9.2c0,6.9-2.6,12.2-7.9,16
				c-5.3,3.8-11.8,5.7-19.6,5.7c-4.1,0-8.1-0.5-12.1-1.4c-4-0.9-6.7-1.9-7.9-3l2.2-9.4c1.8,1.4,4.4,2.6,7.7,3.9
				c3.3,1.2,6.8,1.8,10.4,1.8c4,0,7.4-0.8,10.2-2.5c2.8-1.7,4.2-4.4,4.2-8.2c0-3.3-1.1-6.1-3.3-8.4c-2.2-2.3-5.4-5-9.7-7.9
				c-9.3-6.4-14-13.8-14-22.1c0-4.2,1.2-8,3.5-11.2c2.3-3.2,5.6-5.7,9.6-7.5c4.1-1.8,8.6-2.6,13.6-2.6c3.3,0,6.6,0.3,10,0.9
				c3.4,0.6,5.8,1.2,7.1,1.7L855.1,59C854.3,58,852.6,56.9,849.7,55.6z"/>
			<path d="M884.8,109.6c0,2.3,0.4,3.8,1.3,4.7c0.9,0.9,2.4,1.4,4.7,1.4c1.9,0,4.2-0.6,6.8-1.7c2.6-1.1,4.7-2.3,6.2-3.6l1.2,4.5
				c-1.9,2.2-4.9,4.3-9.2,6.4c-4.2,2.1-8.4,3.2-12.7,3.2c-3.7,0-6.6-0.9-8.7-2.8c-2.1-1.9-3.1-4.7-3.1-8.6c0-1.6,0.3-5,0.8-10
				l6.4-48h-8.3l1.2-5.4l8.4-2.7c2.3-2.6,5-8.5,8.1-17.5h6.9l-2.2,17.4h17.4l-1.1,8.3h-17.4l-6,44.5
				C885.1,104.8,884.8,108.2,884.8,109.6z"/>
		</g>
	</g>
</g>
</svg>
